0
SECTION
2
HEADER
9
$INSUNITS
70
4
9
$ACADVER
1
AC1014
9
$HANDSEED
5
FFFF
0
ENDSEC
0
SECTION
2
TABLES
0
TABLE
2
VPORT
5
8
100
AcDbSymbolTable
0
ENDTAB
0
TABLE
2
LTYPE
5
5
100
AcDbSymbolTable
0
LTYPE
5
14
100
AcDbSymbolTableRecord
100
AcDbLinetypeTableRecord
2
BYBLOCK
70
0
0
LTYPE
5
15
100
AcDbSymbolTableRecord
100
AcDbLinetypeTableRecord
2
BYLAYER
70
0
0
ENDTAB
0
TABLE
2
LAYER
5
2
100
AcDbSymbolTable
70
2
0
LAYER
5
50
100
AcDbSymbolTableRecord
100
AcDbLayerTableRecord
2
0
70
0
6
CONTINUOUS
0
ENDTAB
0
TABLE
2
STYLE
5
3
100
AcDbSymbolTable
70
1
0
STYLE
5
11
100
AcDbSymbolTableRecord
100
AcDbTextStyleTableRecord
2
STANDARD
70
0
0
ENDTAB
0
TABLE
2
VIEW
5
6
100
AcDbSymbolTable
70
0
0
ENDTAB
0
TABLE
2
UCS
5
7
100
AcDbSymbolTable
70
0
0
ENDTAB
0
TABLE
2
APPID
5
9
100
AcDbSymbolTable
70
2
0
APPID
5
12
100
AcDbSymbolTableRecord
100
AcDbRegAppTableRecord
2
ACAD
70
0
0
ENDTAB
0
TABLE
2
DIMSTYLE
5
A
100
AcDbSymbolTable
70
1
0
ENDTAB
0
TABLE
2
BLOCK_RECORD
5
1
100
AcDbSymbolTable
70
1
0
BLOCK_RECORD
5
1F
100
AcDbSymbolTableRecord
100
AcDbBlockTableRecord
2
*MODEL_SPACE
0
BLOCK_RECORD
5
1B
100
AcDbSymbolTableRecord
100
AcDbBlockTableRecord
2
*PAPER_SPACE
0
ENDTAB
0
ENDSEC
0
SECTION
2
BLOCKS
0
BLOCK
5
20
100
AcDbEntity
100
AcDbBlockBegin
2
*MODEL_SPACE
0
ENDBLK
5
21
100
AcDbEntity
100
AcDbBlockEnd
0
BLOCK
5
1C
100
AcDbEntity
100
AcDbBlockBegin
2
*PAPER_SPACE
0
ENDBLK
5
1D
100
AcDbEntity
100
AcDbBlockEnd
0
ENDSEC
0
SECTION
2
ENTITIES
0
CIRCLE
5
100
100
AcDbEntity
8
0
100
AcDbCircle
10
45.499999999999972
20
-10
30
0
40
2.7499999999999947
210
0
220
-0
230
1
0
CIRCLE
5
101
100
AcDbEntity
8
0
100
AcDbCircle
10
45.500000000000007
20
-500.00000759959221
30
0
40
2.7499999999999858
210
0
220
-0
230
1
0
CIRCLE
5
102
100
AcDbEntity
8
0
100
AcDbCircle
10
221.25000370293859
20
-500.00000759959221
30
0
40
2.7499999999999858
210
0
220
-0
230
1
0
CIRCLE
5
103
100
AcDbEntity
8
0
100
AcDbCircle
10
10
20
-65.499999999999972
30
0
40
2.7499999999999969
210
0
220
-0
230
1
0
CIRCLE
5
104
100
AcDbEntity
8
0
100
AcDbCircle
10
221.25000370293856
20
-10
30
0
40
2.7499999999999858
210
0
220
-0
230
1
0
CIRCLE
5
105
100
AcDbEntity
8
0
100
AcDbCircle
10
10
20
-444.50000759959221
30
0
40
2.7500000000000169
210
0
220
-0
230
1
0
CIRCLE
5
106
100
AcDbEntity
8
0
100
AcDbCircle
10
397.00000740587711
20
-500.00000759959221
30
0
40
2.7500000000000568
210
0
220
-0
230
1
0
CIRCLE
5
107
100
AcDbEntity
8
0
100
AcDbCircle
10
10
20
-255.0000037997961
30
0
40
2.749999999999988
210
0
220
-0
230
1
0
CIRCLE
5
108
100
AcDbEntity
8
0
100
AcDbCircle
10
397.00000740587711
20
-10
30
0
40
2.7499999999999858
210
0
220
-0
230
1
0
CIRCLE
5
109
100
AcDbEntity
8
0
100
AcDbCircle
10
313.2067006194647
20
-80.59999999999863
30
0
40
3.0000000000000071
210
0
220
-0
230
1
0
CIRCLE
5
110
100
AcDbEntity
8
0
100
AcDbCircle
10
185.69323040569319
20
-429.4000000000031
30
0
40
2.9999999999999716
210
0
220
-0
230
1
0
CIRCLE
5
111
100
AcDbEntity
8
0
100
AcDbCircle
10
297.7067006194647
20
-65.09999999999863
30
0
40
14.000000000000021
210
0
220
-0
230
1
0
CIRCLE
5
112
100
AcDbEntity
8
0
100
AcDbCircle
10
313.20670061946475
20
-49.599999999998644
30
0
40
3.0000000000000071
210
0
220
-0
230
1
0
CIRCLE
5
113
100
AcDbEntity
8
0
100
AcDbCircle
10
282.2067006194647
20
-49.59999999999863
30
0
40
3.0000000000000071
210
0
220
-0
230
1
0
CIRCLE
5
114
100
AcDbEntity
8
0
100
AcDbCircle
10
154.69323040569324
20
-429.40000000000305
30
0
40
2.9999999999999716
210
0
220
-0
230
1
0
CIRCLE
5
115
100
AcDbEntity
8
0
100
AcDbCircle
10
185.69323040569319
20
-460.40000000000305
30
0
40
3.0000000000000071
210
0
220
-0
230
1
0
LWPOLYLINE
5
116
100
AcDbEntity
8
0
100
AcDbPolyline
90
4
70
1
43
0.0
10
310.00000488013029
20
-40.500000447034836
10
335.00000488013029
20
-40.500000447034836
10
335.00000488013029
20
-19.500000447034836
10
310.00000488013029
20
-19.500000447034836
0
CIRCLE
5
117
100
AcDbEntity
8
0
100
AcDbCircle
10
170.19323040569321
20
-444.90000000000299
30
0
40
13.999999999999984
210
0
220
-0
230
1
0
CIRCLE
5
118
100
AcDbEntity
8
0
100
AcDbCircle
10
92.306700619464834
20
-65.09999999999863
30
0
40
13.999999999999984
210
0
220
-0
230
1
0
LWPOLYLINE
5
119
100
AcDbEntity
8
0
100
AcDbPolyline
90
4
70
1
43
0.0
10
182.5
20
-490.5
10
207.5
20
-490.5
10
207.5
20
-469.5
10
182.5
20
-469.5
0
CIRCLE
5
120
100
AcDbEntity
8
0
100
AcDbCircle
10
76.806700619464834
20
-80.599999999998616
30
0
40
3.0000000000000071
210
0
220
-0
230
1
0
LWPOLYLINE
5
121
100
AcDbEntity
8
0
100
AcDbPolyline
90
4
70
1
43
0.0
10
55.000001080334187
20
-40.500000447034836
10
80.000001080334187
20
-40.500000447034836
10
80.000001080334187
20
-19.500000447034836
10
55.000001080334187
20
-19.500000447034836
0
CIRCLE
5
122
100
AcDbEntity
8
0
100
AcDbCircle
10
282.2067006194647
20
-80.599999999998616
30
0
40
3.0000000000000071
210
0
220
-0
230
1
0
CIRCLE
5
123
100
AcDbEntity
8
0
100
AcDbCircle
10
107.80670061946482
20
-80.59999999999863
30
0
40
3.0000000000000071
210
0
220
-0
230
1
0
CIRCLE
5
124
100
AcDbEntity
8
0
100
AcDbCircle
10
154.69323040569324
20
-460.40000000000299
30
0
40
2.9999999999999893
210
0
220
-0
230
1
0
CIRCLE
5
125
100
AcDbEntity
8
0
100
AcDbCircle
10
107.80670061946482
20
-49.599999999998644
30
0
40
3.0000000000000071
210
0
220
-0
230
1
0
CIRCLE
5
126
100
AcDbEntity
8
0
100
AcDbCircle
10
76.806700619464849
20
-49.59999999999863
30
0
40
2.9999999999999982
210
0
220
-0
230
1
0
LWPOLYLINE
5
127
100
AcDbEntity
8
0
100
AcDbPolyline
90
8
70
1
43
0.0
10
422.00000740587711
20
-510.00000759959221
10
20.500000000000007
20
-510.00000759959221
10
20.500000000000007
20
-469.50000759959221
10
0
20
-469.50000759959221
10
0
20
-40.499999999999972
10
20.500000000000007
20
-40.5
10
20.499999999999972
20
0
10
422.00000740587711
20
0
0
ENDSEC
0
SECTION
2
OBJECTS
0
DICTIONARY
5
C
100
AcDbDictionary
3
ACAD_GROUP
350
D
3
ACAD_MLINESTYLE
350
17
0
DICTIONARY
5
D
100
AcDbDictionary
0
DICTIONARY
5
1A
330
C
100
AcDbDictionary
0
DICTIONARY
5
17
100
AcDbDictionary
0
ENDSEC
0
EOF
