0
SECTION
2
HEADER
9
$INSUNITS
70
4
9
$ACADVER
1
AC1014
9
$HANDSEED
5
FFFF
0
ENDSEC
0
SECTION
2
TABLES
0
TABLE
2
VPORT
5
8
100
AcDbSymbolTable
0
ENDTAB
0
TABLE
2
LTYPE
5
5
100
AcDbSymbolTable
0
LTYPE
5
14
100
AcDbSymbolTableRecord
100
AcDbLinetypeTableRecord
2
BYBLOCK
70
0
0
LTYPE
5
15
100
AcDbSymbolTableRecord
100
AcDbLinetypeTableRecord
2
BYLAYER
70
0
0
ENDTAB
0
TABLE
2
LAYER
5
2
100
AcDbSymbolTable
70
2
0
LAYER
5
50
100
AcDbSymbolTableRecord
100
AcDbLayerTableRecord
2
0
70
0
6
CONTINUOUS
0
ENDTAB
0
TABLE
2
STYLE
5
3
100
AcDbSymbolTable
70
1
0
STYLE
5
11
100
AcDbSymbolTableRecord
100
AcDbTextStyleTableRecord
2
STANDARD
70
0
0
ENDTAB
0
TABLE
2
VIEW
5
6
100
AcDbSymbolTable
70
0
0
ENDTAB
0
TABLE
2
UCS
5
7
100
AcDbSymbolTable
70
0
0
ENDTAB
0
TABLE
2
APPID
5
9
100
AcDbSymbolTable
70
2
0
APPID
5
12
100
AcDbSymbolTableRecord
100
AcDbRegAppTableRecord
2
ACAD
70
0
0
ENDTAB
0
TABLE
2
DIMSTYLE
5
A
100
AcDbSymbolTable
70
1
0
ENDTAB
0
TABLE
2
BLOCK_RECORD
5
1
100
AcDbSymbolTable
70
1
0
BLOCK_RECORD
5
1F
100
AcDbSymbolTableRecord
100
AcDbBlockTableRecord
2
*MODEL_SPACE
0
BLOCK_RECORD
5
1B
100
AcDbSymbolTableRecord
100
AcDbBlockTableRecord
2
*PAPER_SPACE
0
ENDTAB
0
ENDSEC
0
SECTION
2
BLOCKS
0
BLOCK
5
20
100
AcDbEntity
100
AcDbBlockBegin
2
*MODEL_SPACE
0
ENDBLK
5
21
100
AcDbEntity
100
AcDbBlockEnd
0
BLOCK
5
1C
100
AcDbEntity
100
AcDbBlockBegin
2
*PAPER_SPACE
0
ENDBLK
5
1D
100
AcDbEntity
100
AcDbBlockEnd
0
ENDSEC
0
SECTION
2
ENTITIES
0
LWPOLYLINE
5
100
100
AcDbEntity
8
0
100
AcDbPolyline
90
4
70
1
43
0.0
10
460.90000000000003
20
374
10
460.90000000000003
20
356
10
469.09999999999997
20
356
10
469.09999999999997
20
374
0
CIRCLE
5
101
100
AcDbEntity
8
0
100
AcDbCircle
10
465
20
379.5
30
0
40
1.7499999999999716
210
-0
220
0
230
1
0
CIRCLE
5
102
100
AcDbEntity
8
0
100
AcDbCircle
10
465
20
350.5
30
0
40
1.7499999999999716
210
-0
220
0
230
1
0
CIRCLE
5
103
100
AcDbEntity
8
0
100
AcDbCircle
10
10.000000000000021
20
445.0000087916851
30
0
40
2.7500000000000102
210
0
220
0
230
1
0
CIRCLE
5
104
100
AcDbEntity
8
0
100
AcDbCircle
10
487.00000740587711
20
155.0000087916851
30
0
40
2.7499999999999858
210
1.2325951644078309e-32
220
-5.3976053469340279e-79
230
1
0
CIRCLE
5
105
100
AcDbEntity
8
0
100
AcDbCircle
10
487.00000740587711
20
590.0000087916851
30
0
40
2.7499999999999858
210
1.2325951644078309e-32
220
-5.3976053469340279e-79
230
1
0
CIRCLE
5
106
100
AcDbEntity
8
0
100
AcDbCircle
10
487.00000740587711
20
10.000000000000007
30
0
40
2.7499999999999858
210
1.2325951644078309e-32
220
-5.3976053469340279e-79
230
1
0
CIRCLE
5
107
100
AcDbEntity
8
0
100
AcDbCircle
10
367.75000555440784
20
590
30
0
40
2.7499999999999858
210
1.2325951644078309e-32
220
-5.3976053469340279e-79
230
1
0
CIRCLE
5
108
100
AcDbEntity
8
0
100
AcDbCircle
10
487.00000740587711
20
445.0000087916851
30
0
40
2.7499999999999858
210
1.2325951644078309e-32
220
-5.3976053469340279e-79
230
1
0
CIRCLE
5
109
100
AcDbEntity
8
0
100
AcDbCircle
10
10.000000000000021
20
300.0000087916851
30
0
40
2.7499999999999902
210
0
220
0
230
1
0
CIRCLE
5
110
100
AcDbEntity
8
0
100
AcDbCircle
10
487.00000740587711
20
300.0000087916851
30
0
40
2.7499999999999858
210
1.2325951644078309e-32
220
-5.3976053469340279e-79
230
1
0
CIRCLE
5
111
100
AcDbEntity
8
0
100
AcDbCircle
10
367.75000555440784
20
10.000000000000007
30
0
40
2.7499999999999858
210
1.2325951644078309e-32
220
-5.3976053469340279e-79
230
1
0
CIRCLE
5
112
100
AcDbEntity
8
0
100
AcDbCircle
10
10.000000000000021
20
590
30
0
40
2.7500000000000058
210
0
220
0
230
1
0
CIRCLE
5
113
100
AcDbEntity
8
0
100
AcDbCircle
10
129.25000192597511
20
590
30
0
40
2.7499999999999858
210
1.2325951644078309e-32
220
-5.3976053469340279e-79
230
1
0
CIRCLE
5
114
100
AcDbEntity
8
0
100
AcDbCircle
10
248.50000370293859
20
10.000000000000007
30
0
40
2.7499999999999858
210
1.2325951644078309e-32
220
-5.3976053469340279e-79
230
1
0
CIRCLE
5
115
100
AcDbEntity
8
0
100
AcDbCircle
10
129.25000192597511
20
10.000000000000007
30
0
40
2.7499999999999858
210
1.2325951644078309e-32
220
-5.3976053469340279e-79
230
1
0
CIRCLE
5
116
100
AcDbEntity
8
0
100
AcDbCircle
10
248.50000370293859
20
590
30
0
40
2.7499999999999858
210
1.2325951644078309e-32
220
-5.3976053469340279e-79
230
1
0
CIRCLE
5
117
100
AcDbEntity
8
0
100
AcDbCircle
10
10.000000149011633
20
10.000000000000007
30
0
40
2.7499999999999991
210
0
220
-0
230
1
0
CIRCLE
5
118
100
AcDbEntity
8
0
100
AcDbCircle
10
10.000000000000021
20
155.0000087916851
30
0
40
2.7500000000000036
210
1.2325951644078309e-32
220
-5.3976053469340279e-79
230
1
0
LWPOLYLINE
5
119
100
AcDbEntity
8
0
100
AcDbPolyline
90
4
70
1
43
0.0
10
466.5
20
127
10
433.5
20
127
10
433.5
20
72.999999999999986
10
466.5
20
72.999999999999972
0
CIRCLE
5
120
100
AcDbEntity
8
0
100
AcDbCircle
10
429.90000000000003
20
100
30
0
40
1.5999999999999659
210
0
220
0
230
1
0
CIRCLE
5
121
100
AcDbEntity
8
0
100
AcDbCircle
10
470.09999999999997
20
100
30
0
40
1.5999999999999659
210
0
220
0
230
1
0
LWPOLYLINE
5
122
100
AcDbEntity
8
0
100
AcDbPolyline
90
6
70
1
43
0.0
10
444.00000661611557
20
380.00000566244125
10
428.00000637769699
20
380.00000566244125
10
428.00000637769699
20
326.00000485777855
10
447.00000666081905
20
326.00000485777855
10
447.00000666081905
20
361.00000537931919
10
444.00000661611557
20
361.00000537931919
0
LWPOLYLINE
5
123
100
AcDbEntity
8
0
100
AcDbPolyline
90
4
70
1
43
0.0
10
2.1127004868491179e-14
20
0
10
0
20
600.00000894069672
10
497.00000740587711
20
600.00000894069672
10
497.00000740587711
20
5.7406567757358552e-15
0
ENDSEC
0
SECTION
2
OBJECTS
0
DICTIONARY
5
C
100
AcDbDictionary
3
ACAD_GROUP
350
D
3
ACAD_MLINESTYLE
350
17
0
DICTIONARY
5
D
100
AcDbDictionary
0
DICTIONARY
5
1A
330
C
100
AcDbDictionary
0
DICTIONARY
5
17
100
AcDbDictionary
0
ENDSEC
0
EOF
